<svg xmlns="http://www.w3.org/2000/svg" width="1365" height="980" viewBox="0 0 1365 980">
  <defs>
    <style>
      .bg { fill: #ffffff; }
      .line { stroke: #e4e8ef; stroke-width: 1; }
      .muted-line { stroke: #edf0f4; stroke-width: 1; }
      .panel { fill: #ffffff; stroke: #dfe4ec; stroke-width: 1; }
      .head { fill: #f7f8fb; }
      .input { fill: #fbfcfe; stroke: #d8dee8; stroke-width: 1; }
      .btn-red { fill: #d55450; stroke: #be413d; stroke-width: 1; }
      .btn-blue { fill: #477edb; stroke: #2e67c4; stroke-width: 1; }
      .btn-green { fill: #58a96f; stroke: #438b58; stroke-width: 1; }
      .btn-white { fill: #ffffff; stroke: #cfd7e3; stroke-width: 1; }
      .success { fill: #eefaf2; stroke: #bfe8cc; stroke-width: 1; }
      .text { fill: #303544; font-family: "Microsoft YaHei", "PingFang SC", Arial, sans-serif; }
      .muted { fill: #6f7888; font-family: "Microsoft YaHei", "PingFang SC", Arial, sans-serif; }
      .subtle { fill: #9aa3b2; font-family: "Microsoft YaHei", "PingFang SC", Arial, sans-serif; }
      .white { fill: #ffffff; font-family: "Microsoft YaHei", "PingFang SC", Arial, sans-serif; }
      .green-text { fill: #287247; font-family: "Microsoft YaHei", "PingFang SC", Arial, sans-serif; }
      .title { font-size: 44px; font-weight: 760; }
      .h2 { font-size: 32px; font-weight: 750; }
      .h3 { font-size: 19px; font-weight: 720; }
      .body { font-size: 18px; }
      .small { font-size: 15px; }
      .tiny { font-size: 13px; }
      .btn { font-size: 19px; font-weight: 720; }
      .table { font-size: 16px; }
      .table-head { font-size: 16px; font-weight: 720; }
    </style>
    <filter id="shadow" x="-12%" y="-20%" width="124%" height="150%">
      <feDropShadow dx="0" dy="2" stdDeviation="4" flood-color="#1f2937" flood-opacity="0.16"/>
    </filter>
  </defs>

  <rect class="bg" width="1365" height="980"/>

  <g transform="translate(70,18)">
    <text x="0" y="38" class="text title">导入文件</text>

    <g transform="translate(0,88)">
      <text x="0" y="32" class="text h2">订阅获取</text>
      <rect x="822" y="-14" width="226" height="60" rx="8" class="btn-blue"/>
      <text x="876" y="23" class="white btn">登录腾讯文档</text>
      <text x="1070" y="24" class="text h3">Cookie： 已获取</text>

      <g transform="translate(6,82)">
        <rect x="0" y="0" width="26" height="26" rx="4" fill="#5a82d8"/>
        <path d="M7 13.5 L12 18.5 L20.5 7.5" fill="none" stroke="#fff" stroke-width="4" stroke-linecap="round" stroke-linejoin="round"/>
        <text x="48" y="20" class="muted body">仅解析待入库更新文件</text>
        <rect x="292" y="1" width="24" height="24" rx="3" class="input"/>
        <text x="340" y="20" class="muted body">强制全量解析</text>
        <rect x="500" y="0" width="26" height="26" rx="4" fill="#5a82d8"/>
        <path d="M507 13.5 L512 18.5 L520.5 7.5" fill="none" stroke="#fff" stroke-width="4" stroke-linecap="round" stroke-linejoin="round"/>
        <text x="548" y="20" class="muted body">定时获取间隔：20分钟</text>
      </g>
      <text x="0" y="158" class="muted body">下次自动更新：01:53:16，倒计时 6分52秒</text>
    </g>

    <g transform="translate(0,318)" filter="url(#shadow)">
      <rect x="0" y="0" width="279" height="60" rx="8" class="btn-red"/>
      <text x="84" y="38" class="white btn">开始后台更新</text>
      <rect x="303" y="0" width="279" height="60" rx="8" class="btn-blue"/>
      <text x="401" y="38" class="white btn">增加订阅</text>
      <rect x="606" y="0" width="279" height="60" rx="8" class="btn-green"/>
      <text x="704" y="38" class="white btn">保存订阅</text>
      <rect x="909" y="0" width="279" height="60" rx="8" class="btn-white"/>
      <text x="1007" y="38" class="text btn">导出订阅</text>
    </g>

    <g transform="translate(0,402)">
      <rect x="0" y="0" width="1220" height="500" rx="8" class="panel"/>
      <rect x="0" y="0" width="1220" height="56" rx="8" class="head"/>
      <line x1="92" y1="0" x2="92" y2="500" class="muted-line"/>
      <line x1="162" y1="0" x2="162" y2="500" class="muted-line"/>
      <line x1="448" y1="0" x2="448" y2="500" class="muted-line"/>
      <line x1="620" y1="0" x2="620" y2="500" class="muted-line"/>
      <line x1="790" y1="0" x2="790" y2="500" class="muted-line"/>
      <line x1="1098" y1="0" x2="1098" y2="500" class="muted-line"/>

      <rect x="14" y="16" width="24" height="24" rx="3" class="input"/>
      <text x="46" y="36" class="muted table-head">删除</text>
      <text x="104" y="36" class="muted table-head">启用</text>
      <text x="180" y="36" class="muted table-head">名称</text>
      <text x="464" y="36" class="muted table-head">最后修改</text>
      <text x="636" y="36" class="muted table-head">状态</text>
      <text x="806" y="36" class="muted table-head">腾讯文档地址</text>
      <text x="1116" y="36" class="muted table-head">Tag</text>

      <g transform="translate(0,56)">
        <line x1="0" y1="0" x2="1220" y2="0" class="muted-line"/>
        <rect x="14" y="16" width="24" height="24" rx="3" class="input"/>
        <rect x="104" y="14" width="26" height="26" rx="4" fill="#5a82d8"/>
        <path d="M111 27 L116 32 L124.5 21" fill="none" stroke="#fff" stroke-width="4" stroke-linecap="round" stroke-linejoin="round"/>
        <text x="180" y="36" class="text table">正典系统窗&amp;迷住专属清单-26年618</text>
        <text x="464" y="36" class="muted table">2026-06-09 1...</text>
        <text x="636" y="36" class="muted table">已同步</text>
        <text x="806" y="36" class="text table">https://docs.qq.com/sheet/DVk...</text>
        <text x="1116" y="36" class="muted table">门窗</text>
      </g>

      <g transform="translate(0,112)">
        <line x1="0" y1="0" x2="1220" y2="0" class="muted-line"/>
        <rect x="14" y="16" width="24" height="24" rx="3" fill="#5a82d8"/>
        <path d="M20 28 L25 33 L33 22" fill="none" stroke="#fff" stroke-width="3.5" stroke-linecap="round" stroke-linejoin="round"/>
        <rect x="104" y="14" width="26" height="26" rx="4" fill="#5a82d8"/>
        <path d="M111 27 L116 32 L124.5 21" fill="none" stroke="#fff" stroke-width="4" stroke-linecap="round" stroke-linejoin="round"/>
        <text x="180" y="36" class="text table">九牧&amp;迷住专属清单-26年618</text>
        <text x="464" y="36" class="muted table">2026-06-16 0...</text>
        <text x="636" y="36" class="muted table">已同步</text>
        <text x="806" y="36" class="text table">https://docs.qq.com/sheet/DVl...</text>
        <text x="1116" y="36" class="muted table">卫浴</text>
      </g>

      <g transform="translate(0,168)">
        <line x1="0" y1="0" x2="1220" y2="0" class="muted-line"/>
        <rect x="14" y="16" width="24" height="24" rx="3" class="input"/>
        <rect x="104" y="14" width="26" height="26" rx="4" fill="#5a82d8"/>
        <path d="M111 27 L116 32 L124.5 21" fill="none" stroke="#fff" stroke-width="4" stroke-linecap="round" stroke-linejoin="round"/>
        <text x="180" y="36" class="text table">小牧卫浴&amp;迷住专属清单-26年618</text>
        <text x="464" y="36" class="muted table">2026-06-15 1...</text>
        <text x="636" y="36" class="muted table">已同步</text>
        <text x="806" y="36" class="text table">https://docs.qq.com/sheet/DVr...</text>
        <text x="1116" y="36" class="muted table">卫浴</text>
      </g>

      <g transform="translate(0,224)">
        <line x1="0" y1="0" x2="1220" y2="0" class="muted-line"/>
        <rect x="14" y="16" width="24" height="24" rx="3" class="input"/>
        <rect x="104" y="14" width="26" height="26" rx="4" fill="#5a82d8"/>
        <path d="M111 27 L116 32 L124.5 21" fill="none" stroke="#fff" stroke-width="4" stroke-linecap="round" stroke-linejoin="round"/>
        <text x="180" y="36" class="text table">恒洁&amp;小牧&amp;奥普&amp;欧琳&amp;惠达&amp;瑞尔特 卫浴&amp;迷住...</text>
        <text x="464" y="36" class="muted table">2026-06-15 2...</text>
        <text x="636" y="36" class="muted table">已同步</text>
        <text x="806" y="36" class="text table">https://docs.qq.com/sheet/DVk...</text>
        <text x="1116" y="36" class="muted table">卫浴</text>
      </g>

      <g transform="translate(0,280)">
        <line x1="0" y1="0" x2="1220" y2="0" class="muted-line"/>
        <rect x="14" y="16" width="24" height="24" rx="3" class="input"/>
        <rect x="104" y="14" width="26" height="26" rx="4" fill="#5a82d8"/>
        <path d="M111 27 L116 32 L124.5 21" fill="none" stroke="#fff" stroke-width="4" stroke-linecap="round" stroke-linejoin="round"/>
        <text x="180" y="36" class="text table">鹿客&amp;德施曼&amp;邦先生&amp;好太太 指纹锁&amp;晾衣机...</text>
        <text x="464" y="36" class="muted table">2026-06-16 0...</text>
        <text x="636" y="36" class="muted table">已同步</text>
        <text x="806" y="36" class="text table">https://docs.qq.com/sheet/DVr...</text>
        <text x="1116" y="36" class="muted table">家装</text>
      </g>

      <g transform="translate(0,336)">
        <line x1="0" y1="0" x2="1220" y2="0" class="muted-line"/>
        <rect x="14" y="16" width="24" height="24" rx="3" class="input"/>
        <rect x="104" y="14" width="26" height="26" rx="4" fill="#5a82d8"/>
        <path d="M111 27 L116 32 L124.5 21" fill="none" stroke="#fff" stroke-width="4" stroke-linecap="round" stroke-linejoin="round"/>
        <text x="180" y="36" class="text table">KOEY&amp;雷士&amp;奥朵&amp;lipro&amp;科创者&amp;灯具开关...</text>
        <text x="464" y="36" class="muted table">2026-06-15 2...</text>
        <text x="636" y="36" class="muted table">已同步</text>
        <text x="806" y="36" class="text table">https://docs.qq.com/sheet/DVr...</text>
        <text x="1116" y="36" class="muted table">灯具</text>
      </g>

      <g transform="translate(0,392)">
        <line x1="0" y1="0" x2="1220" y2="0" class="muted-line"/>
        <rect x="14" y="16" width="24" height="24" rx="3" fill="#5a82d8"/>
        <path d="M20 28 L25 33 L33 22" fill="none" stroke="#fff" stroke-width="3.5" stroke-linecap="round" stroke-linejoin="round"/>
        <rect x="104" y="14" width="26" height="26" rx="4" fill="#5a82d8"/>
        <path d="M111 27 L116 32 L124.5 21" fill="none" stroke="#fff" stroke-width="4" stroke-linecap="round" stroke-linejoin="round"/>
        <text x="180" y="36" class="text table">西昊&amp;清闲&amp;黑白调&amp;乐歌&amp;工学桌椅迷住专属...</text>
        <text x="464" y="36" class="muted table">2026-06-16 0...</text>
        <text x="636" y="36" class="muted table">已同步</text>
        <text x="806" y="36" class="text table">https://docs.qq.com/sheet/DVr...</text>
        <text x="1116" y="36" class="muted table">桌椅</text>
      </g>

      <rect x="1190" y="12" width="12" height="430" rx="6" fill="#a0a4aa"/>
      <rect x="28" y="468" width="862" height="14" rx="7" fill="#8f9297"/>
      <polygon points="1204,468 1216,475 1204,482" fill="#8f9297"/>
    </g>

    <g transform="translate(0,922)">
      <rect x="0" y="0" width="610" height="36" rx="8" class="success"/>
      <text x="16" y="24" class="green-text small">保存订阅：保存编辑内容，并删除左侧“删除选择”勾选的订阅条目。</text>
      <text x="636" y="24" class="muted small">左侧新增删除选择列默认不勾选；原启用列保持当前勾选状态和全选逻辑。</text>
    </g>
  </g>
</svg>
